<svg width="66" height="70" viewBox="0 0 66 70" fill="none" xmlns="http://www.w3.org/2000/svg">
<path d="M61.5166 64.6021L16.0781 66.6187V3.21631L60.8955 1.11182L61.5166 64.6021Z" fill="#C7CFF6"/>
<path d="M61.5166 64.6021L16.0781 66.6187V3.21631L60.8955 1.11182L61.5166 64.6021Z" stroke="#0F1C5C" stroke-width="0.5"/>
<path d="M61.5166 64.6021L16.0781 66.6187V3.21631L60.8955 1.11182L61.5166 64.6021Z" stroke="#0C164A" stroke-width="0.5"/>
<path d="M57.9844 2.96362L58.6436 66.616L16.0781 64.4041V2.96362H57.9844Z" fill="#C7CFF6"/>
<path d="M57.9844 2.96362L58.6436 66.616L16.0781 64.4041V2.96362H57.9844Z" stroke="#0F1C5C" stroke-width="0.5"/>
<path d="M57.9844 2.96362L58.6436 66.616L16.0781 64.4041V2.96362H57.9844Z" stroke="#0C164A" stroke-width="0.5"/>
<path d="M55.0566 4.19946L55.6484 68.6604L16.0781 66.4231L16.0791 4.19946H55.0566Z" fill="#C7CFF6"/>
<path d="M55.0566 4.19946L55.6484 68.6604L16.0781 66.4231L16.0791 4.19946H55.0566Z" stroke="#0F1C5C" stroke-width="0.5"/>
<path d="M55.0566 4.19946L55.6484 68.6604L16.0781 66.4231L16.0791 4.19946H55.0566Z" stroke="#0C164A" stroke-width="0.5"/>
<path d="M52.3066 5.61279V69.7261L16.0781 66.3882V2.98193L52.3066 5.61279Z" fill="#C7CFF6"/>
<path d="M52.3066 5.61279V69.7261L16.0781 66.3882V2.98193L52.3066 5.61279Z" stroke="#0F1C5C" stroke-width="0.5"/>
<path d="M52.3066 5.61279V69.7261L16.0781 66.3882V2.98193L52.3066 5.61279Z" stroke="#0C164A" stroke-width="0.5"/>
<g clip-path="url(#clip0_7739_1339)">
<path d="M6.57889 44.1266C8.87239 42.6586 9.88248 40.1411 8.83435 38.5027C8.74325 38.3618 8.64087 38.2317 8.52723 38.1125L11.2631 36.3642L26.4376 43.5264C27.0476 43.8575 27.7745 43.9786 28.5057 43.818C29.1775 43.6712 29.7781 43.297 30.2061 42.7586L30.3779 42.4881L14.0567 34.5778L16.533 33.0899C16.533 33.0899 16.533 29.0057 16.533 29.0922L11.2631 32.7915L8.52723 31.0432C8.64089 30.9224 8.74366 30.7918 8.83435 30.653C9.88248 29.0145 8.8738 26.497 6.57889 25.0291C4.28398 23.5611 1.5763 23.6992 0.526756 25.3376C-0.521378 26.976 0.487311 29.4935 2.78222 30.9615L8.4582 34.5778L2.78222 38.1942C0.488719 39.6621 -0.521379 42.1796 0.526755 43.818C1.57489 45.4564 4.28398 45.5945 6.57889 44.1266ZM3.92051 29.1808C2.88788 28.5201 2.38635 27.672 2.25956 27.0986C2.2187 26.9112 2.19335 26.652 2.30605 26.4745C2.43143 26.2787 2.76249 26.1491 3.19217 26.1265C3.88811 26.0913 4.70802 26.3393 5.43777 26.807C6.47041 27.4677 6.97194 28.3158 7.09873 28.8892C7.13958 29.0765 7.16494 29.3357 7.05224 29.5132C6.92686 29.7091 6.59579 29.8387 6.16611 29.8612C5.46877 29.8964 4.65026 29.6485 3.92051 29.1808ZM10.2699 34.5764C10.2699 34.3896 10.3441 34.2104 10.4762 34.0783C10.6083 33.9462 10.7875 33.872 10.9743 33.872C11.1611 33.872 11.3403 33.9462 11.4724 34.0783C11.6045 34.2104 11.6787 34.3896 11.6787 34.5764C11.6787 34.7632 11.6045 34.9424 11.4724 35.0745C11.3403 35.2066 11.1611 35.2808 10.9743 35.2808C10.7875 35.2808 10.6083 35.2066 10.4762 35.0745C10.3441 34.9424 10.2699 34.7632 10.2699 34.5764ZM3.19358 43.0263C2.7639 43.0038 2.43284 42.8741 2.30746 42.6783C2.19475 42.5022 2.22011 42.2416 2.26097 42.0542C2.38635 41.4809 2.88929 40.6328 3.92192 39.9721C4.65308 39.5043 5.47158 39.2564 6.16752 39.2916C6.5972 39.3142 6.92827 39.4438 7.05365 39.6396C7.16635 39.8157 7.14099 40.0763 7.10014 40.2637C6.97476 40.837 6.47182 41.6851 5.43918 42.3459C4.70802 42.8136 3.88952 43.0615 3.19358 43.0263Z" fill="#0F1C5C"/>
<path d="M6.57889 44.1266C8.87239 42.6586 9.88248 40.1411 8.83435 38.5027C8.74325 38.3618 8.64087 38.2317 8.52723 38.1125L11.2631 36.3642L26.4376 43.5264C27.0476 43.8575 27.7745 43.9786 28.5057 43.818C29.1775 43.6712 29.7781 43.297 30.2061 42.7586L30.3779 42.4881L14.0567 34.5778L16.533 33.0899C16.533 33.0899 16.533 29.0057 16.533 29.0922L11.2631 32.7915L8.52723 31.0432C8.64089 30.9224 8.74366 30.7918 8.83435 30.653C9.88248 29.0145 8.8738 26.497 6.57889 25.0291C4.28398 23.5611 1.5763 23.6992 0.526756 25.3376C-0.521378 26.976 0.487311 29.4935 2.78222 30.9615L8.4582 34.5778L2.78222 38.1942C0.488719 39.6621 -0.521379 42.1796 0.526755 43.818C1.57489 45.4564 4.28398 45.5945 6.57889 44.1266ZM3.92051 29.1808C2.88788 28.5201 2.38635 27.672 2.25956 27.0986C2.2187 26.9112 2.19335 26.652 2.30605 26.4745C2.43143 26.2787 2.76249 26.1491 3.19217 26.1265C3.88811 26.0913 4.70802 26.3393 5.43777 26.807C6.47041 27.4677 6.97194 28.3158 7.09873 28.8892C7.13958 29.0765 7.16494 29.3357 7.05224 29.5132C6.92686 29.7091 6.59579 29.8387 6.16611 29.8612C5.46877 29.8964 4.65026 29.6485 3.92051 29.1808ZM10.2699 34.5764C10.2699 34.3896 10.3441 34.2104 10.4762 34.0783C10.6083 33.9462 10.7875 33.872 10.9743 33.872C11.1611 33.872 11.3403 33.9462 11.4724 34.0783C11.6045 34.2104 11.6787 34.3896 11.6787 34.5764C11.6787 34.7632 11.6045 34.9424 11.4724 35.0745C11.3403 35.2066 11.1611 35.2808 10.9743 35.2808C10.7875 35.2808 10.6083 35.2066 10.4762 35.0745C10.3441 34.9424 10.2699 34.7632 10.2699 34.5764ZM3.19358 43.0263C2.7639 43.0038 2.43284 42.8741 2.30746 42.6783C2.19475 42.5022 2.22011 42.2416 2.26097 42.0542C2.38635 41.4809 2.88929 40.6328 3.92192 39.9721C4.65308 39.5043 5.47158 39.2564 6.16752 39.2916C6.5972 39.3142 6.92827 39.4438 7.05365 39.6396C7.16635 39.8157 7.14099 40.0763 7.10014 40.2637C6.97476 40.837 6.47182 41.6851 5.43918 42.3459C4.70802 42.8136 3.88952 43.0615 3.19358 43.0263Z" fill="#0C164A"/>
</g>
<line x1="17.9112" y1="35.6668" x2="51.4391" y2="38.6983" stroke="#0F1C5C" stroke-dasharray="2 2"/>
<line x1="17.9112" y1="35.6668" x2="51.4391" y2="38.6983" stroke="#0C164A" stroke-dasharray="2 2"/>
<defs>
<clipPath id="clip0_7739_1339">
<rect width="22" height="31" fill="white" transform="translate(31 24.0103) rotate(90)"/>
</clipPath>
</defs>
</svg>
