<svg width="71" height="46" viewBox="0 0 71 46" fill="none" xmlns="http://www.w3.org/2000/svg">
<rect x="69.9707" y="0.25" width="45.2023" height="69.7207" transform="rotate(90 69.9707 0.25)" fill="#C7CFF6"/>
<rect x="69.9707" y="0.25" width="45.2023" height="69.7207" transform="rotate(90 69.9707 0.25)" stroke="#0F1C5C" stroke-width="0.5"/>
<rect x="69.9707" y="0.25" width="45.2023" height="69.7207" transform="rotate(90 69.9707 0.25)" stroke="#0C164A" stroke-width="0.5"/>
<line y1="22.6012" x2="69.2393" y2="22.6012" stroke="#0C164A" stroke-opacity="0.5" stroke-width="0.5"/>
<line x1="33.832" y1="0.00107374" x2="33.6357" y2="45.7035" stroke="#0C164A" stroke-opacity="0.5" stroke-width="0.5"/>
<line x1="52.4092" y1="0.00107374" x2="52.2129" y2="45.7035" stroke="#0C164A" stroke-opacity="0.5" stroke-width="0.5"/>
<line x1="16.8184" y1="0.00107374" x2="16.6221" y2="45.7035" stroke="#0C164A" stroke-opacity="0.5" stroke-width="0.5"/>
<path d="M44.7725 27.2516V38.6656H42.8896V29.486L40.1006 30.4313V28.8766L44.5459 27.2516H44.7725Z" fill="#0F1C5C"/>
<path d="M44.7725 27.2516V38.6656H42.8896V29.486L40.1006 30.4313V28.8766L44.5459 27.2516H44.7725Z" fill="#0C164A"/>
<path d="M28.1582 11.6396L29.6582 12.0068L29.041 17.7256L22.9082 17.7256L22.9082 16.1318L27.4785 16.1318L27.791 13.3428C27.6139 13.4469 27.3691 13.5485 27.0566 13.6475C26.7441 13.7516 26.3874 13.8037 25.9863 13.8037C25.4499 13.8037 24.9707 13.7152 24.5488 13.5381C24.1217 13.3662 23.7598 13.1136 23.4629 12.7803C23.166 12.4521 22.9395 12.0511 22.7832 11.5771C22.627 11.1084 22.5488 10.5798 22.5488 9.99121C22.5488 9.46517 22.627 8.97298 22.7832 8.51465C22.9342 8.05631 23.1634 7.65267 23.4707 7.30371C23.778 6.95475 24.166 6.68131 24.6348 6.4834C25.0983 6.29069 25.6478 6.19434 26.2832 6.19434C26.7572 6.19434 27.2129 6.26204 27.6504 6.39746C28.0827 6.53809 28.4707 6.74381 28.8145 7.01465C29.1582 7.29069 29.4342 7.62923 29.6426 8.03027C29.8509 8.43652 29.9707 8.90267 30.002 9.42871L28.1582 9.42871C28.1113 9.05892 28.0098 8.74381 27.8535 8.4834C27.6921 8.22819 27.4785 8.03288 27.2129 7.89746C26.9473 7.76204 26.64 7.69434 26.291 7.69434C25.9733 7.69434 25.6999 7.74902 25.4707 7.8584C25.2415 7.97298 25.0514 8.13444 24.9004 8.34277C24.7441 8.55631 24.6296 8.80631 24.5566 9.09277C24.4785 9.37923 24.4395 9.69694 24.4395 10.0459C24.4395 10.3792 24.4837 10.6839 24.5723 10.96C24.6556 11.236 24.7832 11.4756 24.9551 11.6787C25.1217 11.8818 25.3327 12.0381 25.5879 12.1475C25.8431 12.262 26.1374 12.3193 26.4707 12.3193C26.9186 12.3193 27.2624 12.2542 27.502 12.124C27.7363 11.9938 27.9551 11.8324 28.1582 11.6396Z" fill="#0F1C5C"/>
<path d="M28.1582 11.6396L29.6582 12.0068L29.041 17.7256L22.9082 17.7256L22.9082 16.1318L27.4785 16.1318L27.791 13.3428C27.6139 13.4469 27.3691 13.5485 27.0566 13.6475C26.7441 13.7516 26.3874 13.8037 25.9863 13.8037C25.4499 13.8037 24.9707 13.7152 24.5488 13.5381C24.1217 13.3662 23.7598 13.1136 23.4629 12.7803C23.166 12.4521 22.9395 12.0511 22.7832 11.5771C22.627 11.1084 22.5488 10.5798 22.5488 9.99121C22.5488 9.46517 22.627 8.97298 22.7832 8.51465C22.9342 8.05631 23.1634 7.65267 23.4707 7.30371C23.778 6.95475 24.166 6.68131 24.6348 6.4834C25.0983 6.29069 25.6478 6.19434 26.2832 6.19434C26.7572 6.19434 27.2129 6.26204 27.6504 6.39746C28.0827 6.53809 28.4707 6.74381 28.8145 7.01465C29.1582 7.29069 29.4342 7.62923 29.6426 8.03027C29.8509 8.43652 29.9707 8.90267 30.002 9.42871L28.1582 9.42871C28.1113 9.05892 28.0098 8.74381 27.8535 8.4834C27.6921 8.22819 27.4785 8.03288 27.2129 7.89746C26.9473 7.76204 26.64 7.69434 26.291 7.69434C25.9733 7.69434 25.6999 7.74902 25.4707 7.8584C25.2415 7.97298 25.0514 8.13444 24.9004 8.34277C24.7441 8.55631 24.6296 8.80631 24.5566 9.09277C24.4785 9.37923 24.4395 9.69694 24.4395 10.0459C24.4395 10.3792 24.4837 10.6839 24.5723 10.96C24.6556 11.236 24.7832 11.4756 24.9551 11.6787C25.1217 11.8818 25.3327 12.0381 25.5879 12.1475C25.8431 12.262 26.1374 12.3193 26.4707 12.3193C26.9186 12.3193 27.2624 12.2542 27.502 12.124C27.7363 11.9938 27.9551 11.8324 28.1582 11.6396Z" fill="#0C164A"/>
<path d="M64.834 37.1656V38.6656H57.209V37.3766L60.9121 33.3375C61.3184 32.8792 61.6387 32.4834 61.873 32.15C62.1074 31.8167 62.2715 31.5172 62.3652 31.2516C62.4642 30.9808 62.5137 30.7177 62.5137 30.4625C62.5137 30.1031 62.446 29.788 62.3105 29.5172C62.1803 29.2412 61.9876 29.025 61.7324 28.8688C61.4772 28.7073 61.1673 28.6266 60.8027 28.6266C60.3809 28.6266 60.0267 28.7177 59.7402 28.9C59.4538 29.0823 59.2376 29.3349 59.0918 29.6578C58.946 29.9755 58.873 30.3401 58.873 30.7516H56.9902C56.9902 30.0901 57.1413 29.486 57.4434 28.9391C57.7454 28.387 58.1829 27.9495 58.7559 27.6266C59.3288 27.2985 60.0189 27.1344 60.8262 27.1344C61.5866 27.1344 62.2324 27.262 62.7637 27.5172C63.2949 27.7724 63.6986 28.1344 63.9746 28.6031C64.2559 29.0719 64.3965 29.6266 64.3965 30.2672C64.3965 30.6214 64.3392 30.9729 64.2246 31.3219C64.11 31.6709 63.946 32.0198 63.7324 32.3688C63.5241 32.7125 63.2767 33.0589 62.9902 33.4078C62.7038 33.7516 62.3887 34.1005 62.0449 34.4547L59.584 37.1656H64.834Z" fill="#0F1C5C"/>
<path d="M64.834 37.1656V38.6656H57.209V37.3766L60.9121 33.3375C61.3184 32.8792 61.6387 32.4834 61.873 32.15C62.1074 31.8167 62.2715 31.5172 62.3652 31.2516C62.4642 30.9808 62.5137 30.7177 62.5137 30.4625C62.5137 30.1031 62.446 29.788 62.3105 29.5172C62.1803 29.2412 61.9876 29.025 61.7324 28.8688C61.4772 28.7073 61.1673 28.6266 60.8027 28.6266C60.3809 28.6266 60.0267 28.7177 59.7402 28.9C59.4538 29.0823 59.2376 29.3349 59.0918 29.6578C58.946 29.9755 58.873 30.3401 58.873 30.7516H56.9902C56.9902 30.0901 57.1413 29.486 57.4434 28.9391C57.7454 28.387 58.1829 27.9495 58.7559 27.6266C59.3288 27.2985 60.0189 27.1344 60.8262 27.1344C61.5866 27.1344 62.2324 27.262 62.7637 27.5172C63.2949 27.7724 63.6986 28.1344 63.9746 28.6031C64.2559 29.0719 64.3965 29.6266 64.3965 30.2672C64.3965 30.6214 64.3392 30.9729 64.2246 31.3219C64.11 31.6709 63.946 32.0198 63.7324 32.3688C63.5241 32.7125 63.2767 33.0589 62.9902 33.4078C62.7038 33.7516 62.3887 34.1005 62.0449 34.4547L59.584 37.1656H64.834Z" fill="#0C164A"/>
<path d="M6.87012 17.7959L6.63574 17.7959L6.63574 16.2568L6.76856 16.2568C7.44043 16.2568 8.02116 16.1527 8.51074 15.9443C8.99512 15.736 9.39356 15.4495 9.70606 15.085C10.0186 14.7204 10.2529 14.2933 10.4092 13.8037C10.5602 13.3193 10.6357 12.8037 10.6357 12.2568L10.6357 10.4678C10.6357 10.0146 10.5863 9.61361 10.4873 9.26465C10.3883 8.9209 10.2503 8.63184 10.0732 8.39746C9.89095 8.16829 9.68262 7.99381 9.44824 7.87402C9.21387 7.75423 8.96126 7.69434 8.69043 7.69434C8.40918 7.69434 8.15397 7.75163 7.92481 7.86621C7.69564 7.986 7.50033 8.15006 7.33887 8.3584C7.17741 8.56673 7.05501 8.81413 6.97168 9.10059C6.88835 9.38704 6.84668 9.69954 6.84668 10.0381C6.84668 10.361 6.88835 10.6631 6.97168 10.9443C7.04981 11.2308 7.16699 11.4808 7.32324 11.6943C7.47949 11.9131 7.67481 12.0824 7.90918 12.2021C8.13835 12.3271 8.40397 12.3896 8.70606 12.3896C9.08106 12.3896 9.4222 12.3011 9.72949 12.124C10.0316 11.9469 10.2764 11.7152 10.4639 11.4287C10.6462 11.1475 10.7451 10.848 10.7607 10.5303L11.4795 10.7646C11.4378 11.249 11.3311 11.6839 11.1592 12.0693C10.9821 12.4548 10.7503 12.7829 10.4639 13.0537C10.1774 13.3245 9.84668 13.5303 9.47168 13.6709C9.09147 13.8167 8.67481 13.8896 8.22168 13.8896C7.6696 13.8896 7.19043 13.7855 6.78418 13.5771C6.37793 13.3688 6.04199 13.085 5.77637 12.7256C5.50553 12.3714 5.30501 11.9652 5.17481 11.5068C5.03939 11.0537 4.97168 10.5798 4.97168 10.085C4.97168 9.53809 5.05501 9.02767 5.22168 8.55371C5.38835 8.08496 5.63314 7.6735 5.95606 7.31934C6.27376 6.96517 6.66179 6.68913 7.12012 6.49121C7.57324 6.29329 8.08887 6.19434 8.66699 6.19434C9.27637 6.19434 9.82064 6.31152 10.2998 6.5459C10.7738 6.78027 11.1774 7.10319 11.5107 7.51465C11.8389 7.92611 12.0889 8.40006 12.2607 8.93652C12.4326 9.47298 12.5186 10.0407 12.5186 10.6396L12.5186 11.4209C12.5186 12.2855 12.4092 13.1006 12.1904 13.8662C11.9717 14.637 11.6357 15.3167 11.1826 15.9053C10.7243 16.4938 10.1383 16.9548 9.42481 17.2881C8.71126 17.6266 7.8597 17.7959 6.87012 17.7959Z" fill="#0F1C5C"/>
<path d="M6.87012 17.7959L6.63574 17.7959L6.63574 16.2568L6.76856 16.2568C7.44043 16.2568 8.02116 16.1527 8.51074 15.9443C8.99512 15.736 9.39356 15.4495 9.70606 15.085C10.0186 14.7204 10.2529 14.2933 10.4092 13.8037C10.5602 13.3193 10.6357 12.8037 10.6357 12.2568L10.6357 10.4678C10.6357 10.0146 10.5863 9.61361 10.4873 9.26465C10.3883 8.9209 10.2503 8.63184 10.0732 8.39746C9.89095 8.16829 9.68262 7.99381 9.44824 7.87402C9.21387 7.75423 8.96126 7.69434 8.69043 7.69434C8.40918 7.69434 8.15397 7.75163 7.92481 7.86621C7.69564 7.986 7.50033 8.15006 7.33887 8.3584C7.17741 8.56673 7.05501 8.81413 6.97168 9.10059C6.88835 9.38704 6.84668 9.69954 6.84668 10.0381C6.84668 10.361 6.88835 10.6631 6.97168 10.9443C7.04981 11.2308 7.16699 11.4808 7.32324 11.6943C7.47949 11.9131 7.67481 12.0824 7.90918 12.2021C8.13835 12.3271 8.40397 12.3896 8.70606 12.3896C9.08106 12.3896 9.4222 12.3011 9.72949 12.124C10.0316 11.9469 10.2764 11.7152 10.4639 11.4287C10.6462 11.1475 10.7451 10.848 10.7607 10.5303L11.4795 10.7646C11.4378 11.249 11.3311 11.6839 11.1592 12.0693C10.9821 12.4548 10.7503 12.7829 10.4639 13.0537C10.1774 13.3245 9.84668 13.5303 9.47168 13.6709C9.09147 13.8167 8.67481 13.8896 8.22168 13.8896C7.6696 13.8896 7.19043 13.7855 6.78418 13.5771C6.37793 13.3688 6.04199 13.085 5.77637 12.7256C5.50553 12.3714 5.30501 11.9652 5.17481 11.5068C5.03939 11.0537 4.97168 10.5798 4.97168 10.085C4.97168 9.53809 5.05501 9.02767 5.22168 8.55371C5.38835 8.08496 5.63314 7.6735 5.95606 7.31934C6.27376 6.96517 6.66179 6.68913 7.12012 6.49121C7.57324 6.29329 8.08887 6.19434 8.66699 6.19434C9.27637 6.19434 9.82064 6.31152 10.2998 6.5459C10.7738 6.78027 11.1774 7.10319 11.5107 7.51465C11.8389 7.92611 12.0889 8.40006 12.2607 8.93652C12.4326 9.47298 12.5186 10.0407 12.5186 10.6396L12.5186 11.4209C12.5186 12.2855 12.4092 13.1006 12.1904 13.8662C11.9717 14.637 11.6357 15.3167 11.1826 15.9053C10.7243 16.4938 10.1383 16.9548 9.42481 17.2881C8.71126 17.6266 7.8597 17.7959 6.87012 17.7959Z" fill="#0C164A"/>
<path d="M24.0938 27.2906V38.6656H22.1328V27.2906H24.0938ZM28.7344 32.2672V33.8219H23.5938V32.2672H28.7344ZM29.3828 27.2906V28.8531H23.5938V27.2906H29.3828Z" fill="#0F1C5C"/>
<path d="M24.0938 27.2906V38.6656H22.1328V27.2906H24.0938ZM28.7344 32.2672V33.8219H23.5938V32.2672H28.7344ZM29.3828 27.2906V28.8531H23.5938V27.2906H29.3828Z" fill="#0C164A"/>
<path d="M40.0947 10.4053L40.0947 8.90527L48.2979 8.90527L48.3604 10.0381L43.4541 17.7256L41.9463 17.7256L43.5791 14.9287L46.3994 10.4053L40.0947 10.4053ZM41.5166 17.7256L41.5166 6.35059L43.3994 6.35059L43.3994 17.7256L41.5166 17.7256Z" fill="#0F1C5C"/>
<path d="M40.0947 10.4053L40.0947 8.90527L48.2979 8.90527L48.3604 10.0381L43.4541 17.7256L41.9463 17.7256L43.5791 14.9287L46.3994 10.4053L40.0947 10.4053ZM41.5166 17.7256L41.5166 6.35059L43.3994 6.35059L43.3994 17.7256L41.5166 17.7256Z" fill="#0C164A"/>
<path d="M9.38574 33.525H6.4873L6.47168 32.0953H9.00293C9.43001 32.0953 9.79199 32.0328 10.0889 31.9078C10.391 31.7776 10.6201 31.5927 10.7764 31.3531C10.9326 31.1084 11.0107 30.8141 11.0107 30.4703C11.0107 30.0901 10.9378 29.7802 10.792 29.5406C10.6462 29.3011 10.4222 29.1266 10.1201 29.0172C9.82324 28.9078 9.44303 28.8531 8.97949 28.8531H7.08105V38.6656H5.12012V27.2906H8.97949C9.60449 27.2906 10.1618 27.3505 10.6514 27.4703C11.1462 27.5901 11.5654 27.7776 11.9092 28.0328C12.2581 28.2828 12.5212 28.6005 12.6982 28.986C12.8805 29.3714 12.9717 29.8297 12.9717 30.361C12.9717 30.8297 12.8597 31.2594 12.6357 31.65C12.4118 32.0354 12.0811 32.3505 11.6436 32.5953C11.2061 32.8401 10.6618 32.986 10.0107 33.0328L9.38574 33.525ZM9.2998 38.6656H5.87012L6.75293 37.111H9.2998C9.74251 37.111 10.1123 37.038 10.4092 36.8922C10.7061 36.7412 10.9274 36.5354 11.0732 36.275C11.2243 36.0094 11.2998 35.6995 11.2998 35.3453C11.2998 34.9755 11.2347 34.6552 11.1045 34.3844C10.9743 34.1084 10.7686 33.8974 10.4873 33.7516C10.2061 33.6005 9.83887 33.525 9.38574 33.525H7.18262L7.19824 32.0953H10.0654L10.5107 32.6344C11.1357 32.6552 11.6488 32.7933 12.0498 33.0485C12.4561 33.3037 12.7581 33.6344 12.9561 34.0406C13.154 34.4469 13.2529 34.8844 13.2529 35.3531C13.2529 36.0771 13.0941 36.6839 12.7764 37.1735C12.4639 37.663 12.0133 38.0354 11.4248 38.2906C10.8363 38.5406 10.1279 38.6656 9.2998 38.6656Z" fill="#0F1C5C"/>
<path d="M9.38574 33.525H6.4873L6.47168 32.0953H9.00293C9.43001 32.0953 9.79199 32.0328 10.0889 31.9078C10.391 31.7776 10.6201 31.5927 10.7764 31.3531C10.9326 31.1084 11.0107 30.8141 11.0107 30.4703C11.0107 30.0901 10.9378 29.7802 10.792 29.5406C10.6462 29.3011 10.4222 29.1266 10.1201 29.0172C9.82324 28.9078 9.44303 28.8531 8.97949 28.8531H7.08105V38.6656H5.12012V27.2906H8.97949C9.60449 27.2906 10.1618 27.3505 10.6514 27.4703C11.1462 27.5901 11.5654 27.7776 11.9092 28.0328C12.2581 28.2828 12.5212 28.6005 12.6982 28.986C12.8805 29.3714 12.9717 29.8297 12.9717 30.361C12.9717 30.8297 12.8597 31.2594 12.6357 31.65C12.4118 32.0354 12.0811 32.3505 11.6436 32.5953C11.2061 32.8401 10.6618 32.986 10.0107 33.0328L9.38574 33.525ZM9.2998 38.6656H5.87012L6.75293 37.111H9.2998C9.74251 37.111 10.1123 37.038 10.4092 36.8922C10.7061 36.7412 10.9274 36.5354 11.0732 36.275C11.2243 36.0094 11.2998 35.6995 11.2998 35.3453C11.2998 34.9755 11.2347 34.6552 11.1045 34.3844C10.9743 34.1084 10.7686 33.8974 10.4873 33.7516C10.2061 33.6005 9.83887 33.525 9.38574 33.525H7.18262L7.19824 32.0953H10.0654L10.5107 32.6344C11.1357 32.6552 11.6488 32.7933 12.0498 33.0485C12.4561 33.3037 12.7581 33.6344 12.9561 34.0406C13.154 34.4469 13.2529 34.8844 13.2529 35.3531C13.2529 36.0771 13.0941 36.6839 12.7764 37.1735C12.4639 37.663 12.0133 38.0354 11.4248 38.2906C10.8363 38.5406 10.1279 38.6656 9.2998 38.6656Z" fill="#0C164A"/>
<path d="M62.7324 12.8896L61.6074 12.8896C61.1699 12.8896 60.8079 12.9652 60.5215 13.1162C60.2298 13.2673 60.0137 13.4756 59.873 13.7412C59.7324 14.0068 59.6621 14.3115 59.6621 14.6553C59.6621 15.0146 59.7272 15.3219 59.8574 15.5771C59.9824 15.8376 60.1751 16.0381 60.4355 16.1787C60.6908 16.3193 61.0163 16.3896 61.4121 16.3896C61.7454 16.3896 62.0475 16.3219 62.3184 16.1865C62.584 16.0563 62.7949 15.8688 62.9512 15.624C63.1074 15.3844 63.1855 15.098 63.1855 14.7646L65.0762 14.7646C65.0762 15.3688 64.9173 15.9053 64.5996 16.374C64.2819 16.8428 63.8496 17.21 63.3027 17.4756C62.7507 17.7464 62.1309 17.8818 61.4434 17.8818C60.709 17.8818 60.0684 17.7594 59.5215 17.5146C58.9694 17.2751 58.5397 16.9157 58.2324 16.4365C57.9251 15.9574 57.7715 15.3636 57.7715 14.6553C57.7715 14.3324 57.847 14.0042 57.998 13.6709C58.1491 13.3376 58.373 13.0329 58.6699 12.7568C58.9668 12.486 59.3366 12.2646 59.7793 12.0928C60.222 11.9261 60.735 11.8428 61.3184 11.8428L62.7324 11.8428L62.7324 12.8896ZM62.7324 11.4209L62.7324 12.4521L61.3184 12.4521C60.6517 12.4521 60.084 12.374 59.6152 12.2178C59.1413 12.0615 58.7559 11.8454 58.459 11.5693C58.1621 11.2985 57.946 10.9886 57.8105 10.6396C57.6699 10.2907 57.5996 9.9209 57.5996 9.53027C57.5996 8.99902 57.696 8.52506 57.8887 8.1084C58.0762 7.69694 58.3444 7.34798 58.6934 7.06152C59.0423 6.77506 59.4512 6.55892 59.9199 6.41309C60.3835 6.26725 60.8887 6.19434 61.4355 6.19434C61.9251 6.19434 62.3939 6.26204 62.8418 6.39746C63.2897 6.53288 63.6908 6.7334 64.0449 6.99902C64.3991 7.26986 64.6803 7.60579 64.8887 8.00684C65.0918 8.41309 65.1934 8.88184 65.1934 9.41309L63.3105 9.41309C63.3105 9.07454 63.2324 8.77506 63.0762 8.51465C62.9147 8.25944 62.6908 8.05892 62.4043 7.91309C62.1126 7.76725 61.7793 7.69434 61.4043 7.69434C61.0085 7.69434 60.6673 7.76465 60.3809 7.90527C60.0944 8.0459 59.8757 8.25423 59.7246 8.53027C59.5684 8.80631 59.4902 9.13965 59.4902 9.53027C59.4902 9.97298 59.5762 10.3324 59.748 10.6084C59.9199 10.8844 60.1647 11.0876 60.4824 11.2178C60.8001 11.3532 61.1751 11.4209 61.6074 11.4209L62.7324 11.4209Z" fill="#0F1C5C"/>
<path d="M62.7324 12.8896L61.6074 12.8896C61.1699 12.8896 60.8079 12.9652 60.5215 13.1162C60.2298 13.2673 60.0137 13.4756 59.873 13.7412C59.7324 14.0068 59.6621 14.3115 59.6621 14.6553C59.6621 15.0146 59.7272 15.3219 59.8574 15.5771C59.9824 15.8376 60.1751 16.0381 60.4355 16.1787C60.6908 16.3193 61.0163 16.3896 61.4121 16.3896C61.7454 16.3896 62.0475 16.3219 62.3184 16.1865C62.584 16.0563 62.7949 15.8688 62.9512 15.624C63.1074 15.3844 63.1855 15.098 63.1855 14.7646L65.0762 14.7646C65.0762 15.3688 64.9173 15.9053 64.5996 16.374C64.2819 16.8428 63.8496 17.21 63.3027 17.4756C62.7507 17.7464 62.1309 17.8818 61.4434 17.8818C60.709 17.8818 60.0684 17.7594 59.5215 17.5146C58.9694 17.2751 58.5397 16.9157 58.2324 16.4365C57.9251 15.9574 57.7715 15.3636 57.7715 14.6553C57.7715 14.3324 57.847 14.0042 57.998 13.6709C58.1491 13.3376 58.373 13.0329 58.6699 12.7568C58.9668 12.486 59.3366 12.2646 59.7793 12.0928C60.222 11.9261 60.735 11.8428 61.3184 11.8428L62.7324 11.8428L62.7324 12.8896ZM62.7324 11.4209L62.7324 12.4521L61.3184 12.4521C60.6517 12.4521 60.084 12.374 59.6152 12.2178C59.1413 12.0615 58.7559 11.8454 58.459 11.5693C58.1621 11.2985 57.946 10.9886 57.8105 10.6396C57.6699 10.2907 57.5996 9.9209 57.5996 9.53027C57.5996 8.99902 57.696 8.52506 57.8887 8.1084C58.0762 7.69694 58.3444 7.34798 58.6934 7.06152C59.0423 6.77506 59.4512 6.55892 59.9199 6.41309C60.3835 6.26725 60.8887 6.19434 61.4355 6.19434C61.9251 6.19434 62.3939 6.26204 62.8418 6.39746C63.2897 6.53288 63.6908 6.7334 64.0449 6.99902C64.3991 7.26986 64.6803 7.60579 64.8887 8.00684C65.0918 8.41309 65.1934 8.88184 65.1934 9.41309L63.3105 9.41309C63.3105 9.07454 63.2324 8.77506 63.0762 8.51465C62.9147 8.25944 62.6908 8.05892 62.4043 7.91309C62.1126 7.76725 61.7793 7.69434 61.4043 7.69434C61.0085 7.69434 60.6673 7.76465 60.3809 7.90527C60.0944 8.0459 59.8757 8.25423 59.7246 8.53027C59.5684 8.80631 59.4902 9.13965 59.4902 9.53027C59.4902 9.97298 59.5762 10.3324 59.748 10.6084C59.9199 10.8844 60.1647 11.0876 60.4824 11.2178C60.8001 11.3532 61.1751 11.4209 61.6074 11.4209L62.7324 11.4209Z" fill="#0C164A"/>
</svg>
