<svg width="46" height="71" viewBox="0 0 46 71" fill="none" xmlns="http://www.w3.org/2000/svg">
<path d="M45.0439 3.45825L45.4502 66.9211L5.11426 64.7454V1.34302L45.0439 3.45825Z" fill="#C7CFF6"/>
<path d="M45.0439 3.45825L45.4502 66.9211L5.11426 64.7454V1.34302L45.0439 3.45825Z" stroke="#0F1C5C" stroke-width="0.5"/>
<path d="M45.0439 3.45825L45.4502 66.9211L5.11426 64.7454V1.34302L45.0439 3.45825Z" stroke="#0C164A" stroke-width="0.5"/>
<path d="M43.1924 5.04199L43.5986 68.8799L2.22656 66.6133V3.20801L43.1924 5.04199Z" fill="#C7CFF6"/>
<path d="M43.1924 5.04199L43.5986 68.8799L2.22656 66.6133V3.20801L43.1924 5.04199Z" stroke="#0F1C5C" stroke-width="0.5"/>
<path d="M43.1924 5.04199L43.5986 68.8799L2.22656 66.6133V3.20801L43.1924 5.04199Z" stroke="#0C164A" stroke-width="0.5"/>
<path d="M41.2158 6.89819L41.6221 70.7361L0.25 68.4695V5.06421L41.2158 6.89819Z" fill="#C7CFF6"/>
<path d="M41.2158 6.89819L41.6221 70.7361L0.25 68.4695V5.06421L41.2158 6.89819Z" stroke="#0F1C5C" stroke-width="0.5"/>
<path d="M41.2158 6.89819L41.6221 70.7361L0.25 68.4695V5.06421L41.2158 6.89819Z" stroke="#0C164A" stroke-width="0.5"/>
</svg>
