<svg width="71" height="46" viewBox="0 0 71 46" fill="none" xmlns="http://www.w3.org/2000/svg">
<path d="M68.0469 45.0444L5.08496 45.4468L7.2334 5.61279L70.1357 5.61279L68.0469 45.0444Z" fill="#C7CFF6"/>
<path d="M68.0469 45.0444L5.08496 45.4468L7.2334 5.61279L70.1357 5.61279L68.0469 45.0444Z" stroke="#0F1C5C"/>
<path d="M68.0469 45.0444L5.08496 45.4468L7.2334 5.61279L70.1357 5.61279L68.0469 45.0444Z" stroke="#0C164A"/>
<path d="M66.46 43.1929L3.12597 43.5952L5.36523 2.72509L68.2725 2.7251L66.46 43.1929Z" fill="#C7CFF6"/>
<path d="M66.46 43.1929L3.12597 43.5952L5.36523 2.72509L68.2725 2.7251L66.46 43.1929Z" stroke="#0F1C5C"/>
<path d="M66.46 43.1929L3.12597 43.5952L5.36523 2.72509L68.2725 2.7251L66.46 43.1929Z" stroke="#0C164A"/>
<path d="M64.6035 41.2163L1.26953 41.6186L3.50879 0.748532L66.416 0.748535L64.6035 41.2163Z" fill="#C7CFF6"/>
<path d="M64.6035 41.2163L1.26953 41.6186L3.50879 0.748532L66.416 0.748535L64.6035 41.2163Z" stroke="#0F1C5C"/>
<path d="M64.6035 41.2163L1.26953 41.6186L3.50879 0.748532L66.416 0.748535L64.6035 41.2163Z" stroke="#0C164A"/>
</svg>
