<svg width="66" height="71" viewBox="0 0 66 71" fill="none" xmlns="http://www.w3.org/2000/svg">
<path d="M61.5166 65.1675L16.0781 67.1841V3.78174L60.8955 1.67725L61.5166 65.1675Z" fill="#C7CFF6"/>
<path d="M61.5166 65.1675L16.0781 67.1841V3.78174L60.8955 1.67725L61.5166 65.1675Z" stroke="#0F1C5C" stroke-width="0.5"/>
<path d="M61.5166 65.1675L16.0781 67.1841V3.78174L60.8955 1.67725L61.5166 65.1675Z" stroke="#0C164A" stroke-width="0.5"/>
<path d="M57.9844 3.52905L58.6436 67.1814L16.0781 64.9695V3.52905H57.9844Z" fill="#C7CFF6"/>
<path d="M57.9844 3.52905L58.6436 67.1814L16.0781 64.9695V3.52905H57.9844Z" stroke="#0F1C5C" stroke-width="0.5"/>
<path d="M57.9844 3.52905L58.6436 67.1814L16.0781 64.9695V3.52905H57.9844Z" stroke="#0C164A" stroke-width="0.5"/>
<path d="M55.0566 4.76489L55.6484 69.2258L16.0781 66.9885L16.0791 4.76489H55.0566Z" fill="#C7CFF6"/>
<path d="M55.0566 4.76489L55.6484 69.2258L16.0781 66.9885L16.0791 4.76489H55.0566Z" stroke="#0F1C5C" stroke-width="0.5"/>
<path d="M55.0566 4.76489L55.6484 69.2258L16.0781 66.9885L16.0791 4.76489H55.0566Z" stroke="#0C164A" stroke-width="0.5"/>
<path d="M52.3066 6.17822V70.2915L16.0781 66.9536V3.54736L52.3066 6.17822Z" fill="#C7CFF6"/>
<path d="M52.3066 6.17822V70.2915L16.0781 66.9536V3.54736L52.3066 6.17822Z" stroke="#0F1C5C" stroke-width="0.5"/>
<path d="M52.3066 6.17822V70.2915L16.0781 66.9536V3.54736L52.3066 6.17822Z" stroke="#0C164A" stroke-width="0.5"/>
<path d="M36.6963 15.8894V28.7302H34.5781V18.4031L31.4404 19.4666V17.7175L36.4414 15.8894H36.6963Z" fill="#0F1C5C"/>
<path d="M36.6963 15.8894V28.7302H34.5781V18.4031L31.4404 19.4666V17.7175L36.4414 15.8894H36.6963Z" fill="#0C164A"/>
<path d="M36.1895 48.6506V61.4915H34.0713V51.1643L30.9336 52.2278V50.4788L35.9346 48.6506H36.1895Z" fill="#0F1C5C"/>
<path d="M36.1895 48.6506V61.4915H34.0713V51.1643L30.9336 52.2278V50.4788L35.9346 48.6506H36.1895Z" fill="#0C164A"/>
<g clip-path="url(#clip0_7739_1328)">
<path d="M6.57889 44.692C8.87239 43.224 9.88248 40.7065 8.83435 39.0681C8.74325 38.9272 8.64087 38.7972 8.52723 38.6779L11.2631 36.9296L26.4376 44.0918C27.0476 44.4229 27.7745 44.5441 28.5057 44.3835C29.1775 44.2366 29.7781 43.8624 30.2061 43.3241L30.3779 43.0536L14.0567 35.1433L16.533 33.6553C16.533 33.6553 16.533 29.5711 16.533 29.6576L11.2631 33.3569L8.52723 31.6086C8.64089 31.4878 8.74366 31.3572 8.83435 31.2184C9.88248 29.58 8.8738 27.0625 6.57889 25.5945C4.28398 24.1266 1.5763 24.2646 0.526756 25.903C-0.521378 27.5415 0.487311 30.059 2.78222 31.5269L8.4582 35.1433L2.78222 38.7596C0.488719 40.2275 -0.521379 42.745 0.526755 44.3835C1.57489 46.0219 4.28398 46.1599 6.57889 44.692ZM3.92051 29.7462C2.88788 29.0855 2.38635 28.2374 2.25956 27.664C2.2187 27.4767 2.19335 27.2174 2.30605 27.0399C2.43143 26.8441 2.76249 26.7145 3.19217 26.692C3.88811 26.6567 4.70802 26.9047 5.43777 27.3724C6.47041 28.0331 6.97194 28.8812 7.09873 29.4546C7.13958 29.642 7.16494 29.9012 7.05224 30.0787C6.92686 30.2745 6.59579 30.4041 6.16611 30.4266C5.46877 30.4619 4.65026 30.2139 3.92051 29.7462ZM10.2699 35.1418C10.2699 34.955 10.3441 34.7759 10.4762 34.6438C10.6083 34.5117 10.7875 34.4375 10.9743 34.4375C11.1611 34.4375 11.3403 34.5117 11.4724 34.6438C11.6045 34.7759 11.6787 34.955 11.6787 35.1418C11.6787 35.3287 11.6045 35.5078 11.4724 35.6399C11.3403 35.772 11.1611 35.8462 10.9743 35.8462C10.7875 35.8462 10.6083 35.772 10.4762 35.6399C10.3441 35.5078 10.2699 35.3287 10.2699 35.1418ZM3.19358 43.5917C2.7639 43.5692 2.43284 43.4396 2.30746 43.2438C2.19475 43.0677 2.22011 42.807 2.26097 42.6197C2.38635 42.0463 2.88929 41.1982 3.92192 40.5375C4.65308 40.0698 5.47158 39.8218 6.16752 39.857C6.5972 39.8796 6.92827 40.0092 7.05365 40.205C7.16635 40.3811 7.14099 40.6417 7.10014 40.8291C6.97476 41.4025 6.47182 42.2506 5.43918 42.9113C4.70802 43.379 3.88952 43.6269 3.19358 43.5917Z" fill="#0F1C5C"/>
<path d="M6.57889 44.692C8.87239 43.224 9.88248 40.7065 8.83435 39.0681C8.74325 38.9272 8.64087 38.7972 8.52723 38.6779L11.2631 36.9296L26.4376 44.0918C27.0476 44.4229 27.7745 44.5441 28.5057 44.3835C29.1775 44.2366 29.7781 43.8624 30.2061 43.3241L30.3779 43.0536L14.0567 35.1433L16.533 33.6553C16.533 33.6553 16.533 29.5711 16.533 29.6576L11.2631 33.3569L8.52723 31.6086C8.64089 31.4878 8.74366 31.3572 8.83435 31.2184C9.88248 29.58 8.8738 27.0625 6.57889 25.5945C4.28398 24.1266 1.5763 24.2646 0.526756 25.903C-0.521378 27.5415 0.487311 30.059 2.78222 31.5269L8.4582 35.1433L2.78222 38.7596C0.488719 40.2275 -0.521379 42.745 0.526755 44.3835C1.57489 46.0219 4.28398 46.1599 6.57889 44.692ZM3.92051 29.7462C2.88788 29.0855 2.38635 28.2374 2.25956 27.664C2.2187 27.4767 2.19335 27.2174 2.30605 27.0399C2.43143 26.8441 2.76249 26.7145 3.19217 26.692C3.88811 26.6567 4.70802 26.9047 5.43777 27.3724C6.47041 28.0331 6.97194 28.8812 7.09873 29.4546C7.13958 29.642 7.16494 29.9012 7.05224 30.0787C6.92686 30.2745 6.59579 30.4041 6.16611 30.4266C5.46877 30.4619 4.65026 30.2139 3.92051 29.7462ZM10.2699 35.1418C10.2699 34.955 10.3441 34.7759 10.4762 34.6438C10.6083 34.5117 10.7875 34.4375 10.9743 34.4375C11.1611 34.4375 11.3403 34.5117 11.4724 34.6438C11.6045 34.7759 11.6787 34.955 11.6787 35.1418C11.6787 35.3287 11.6045 35.5078 11.4724 35.6399C11.3403 35.772 11.1611 35.8462 10.9743 35.8462C10.7875 35.8462 10.6083 35.772 10.4762 35.6399C10.3441 35.5078 10.2699 35.3287 10.2699 35.1418ZM3.19358 43.5917C2.7639 43.5692 2.43284 43.4396 2.30746 43.2438C2.19475 43.0677 2.22011 42.807 2.26097 42.6197C2.38635 42.0463 2.88929 41.1982 3.92192 40.5375C4.65308 40.0698 5.47158 39.8218 6.16752 39.857C6.5972 39.8796 6.92827 40.0092 7.05365 40.205C7.16635 40.3811 7.14099 40.6417 7.10014 40.8291C6.97476 41.4025 6.47182 42.2506 5.43918 42.9113C4.70802 43.379 3.88952 43.6269 3.19358 43.5917Z" fill="#0C164A"/>
</g>
<line x1="17.9112" y1="36.2323" x2="51.4391" y2="39.2638" stroke="#0F1C5C" stroke-dasharray="2 2"/>
<line x1="17.9112" y1="36.2323" x2="51.4391" y2="39.2638" stroke="#0C164A" stroke-dasharray="2 2"/>
<defs>
<clipPath id="clip0_7739_1328">
<rect width="22" height="31" fill="white" transform="translate(31 24.5757) rotate(90)"/>
</clipPath>
</defs>
</svg>
