<svg width="66" height="70" viewBox="0 0 66 70" fill="none" xmlns="http://www.w3.org/2000/svg">
<path d="M61.9863 64.3525L17.0498 66.3477V3.44434L61.3701 1.3623L61.9863 64.3525Z" fill="#C7CFF6" stroke="black"/>
<path d="M58.459 3.20337L59.1123 66.343L17.0498 64.1565V3.20337H58.459Z" fill="#C7CFF6" stroke="black"/>
<path d="M55.5312 4.43921L56.1172 68.3865L17.0498 66.1765L17.0508 4.43921H55.5312Z" fill="#C7CFF6" stroke="black"/>
<path d="M52.7783 5.83594V69.4414L17.0498 66.1494V3.24121L52.7783 5.83594Z" fill="#C7CFF6" stroke="black"/>
<path d="M37.418 15.3137V28.1545H35.2998V17.8274L32.1621 18.8909V17.1418L37.1631 15.3137H37.418Z" fill="black"/>
<path d="M33.6152 53.5593H34.8809C35.373 53.5593 35.7803 53.4744 36.1025 53.3044C36.4307 53.1345 36.6738 52.9001 36.832 52.6013C36.9902 52.3025 37.0693 51.9597 37.0693 51.573C37.0693 51.1687 36.9961 50.823 36.8496 50.5359C36.709 50.2429 36.4922 50.0173 36.1992 49.8591C35.9121 49.7009 35.5459 49.6218 35.1006 49.6218C34.7256 49.6218 34.3857 49.698 34.0811 49.8503C33.7822 49.9968 33.5449 50.2078 33.3691 50.4832C33.1934 50.7527 33.1055 51.075 33.1055 51.45H30.9785C30.9785 50.7703 31.1572 50.1667 31.5146 49.6394C31.8721 49.1121 32.3584 48.699 32.9736 48.4001C33.5947 48.0955 34.292 47.9431 35.0654 47.9431C35.8916 47.9431 36.6123 48.0808 37.2275 48.3562C37.8486 48.6257 38.332 49.03 38.6777 49.5691C39.0234 50.1082 39.1963 50.7761 39.1963 51.573C39.1963 51.9363 39.1113 52.3054 38.9414 52.6804C38.7715 53.0554 38.5195 53.3982 38.1855 53.7087C37.8516 54.0134 37.4355 54.2625 36.9375 54.4558C36.4395 54.6433 35.8623 54.7371 35.2061 54.7371H33.6152V53.5593ZM33.6152 55.2117V54.0515H35.2061C35.9561 54.0515 36.5947 54.1394 37.1221 54.3152C37.6553 54.491 38.0889 54.7341 38.4229 55.0447C38.7568 55.3494 39 55.698 39.1523 56.0906C39.3105 56.4832 39.3896 56.8992 39.3896 57.3386C39.3896 57.9363 39.2812 58.4695 39.0645 58.9382C38.8535 59.4011 38.5518 59.7937 38.1592 60.116C37.7666 60.4382 37.3066 60.6814 36.7793 60.8455C36.2578 61.0095 35.6895 61.0916 35.0742 61.0916C34.5234 61.0916 33.9961 61.0154 33.4922 60.863C32.9883 60.7107 32.5371 60.4851 32.1387 60.1863C31.7402 59.8816 31.4238 59.5037 31.1895 59.0525C30.9609 58.5955 30.8467 58.0681 30.8467 57.4705H32.9648C32.9648 57.8513 33.0527 58.1882 33.2285 58.4812C33.4102 58.7683 33.6621 58.9939 33.9844 59.158C34.3125 59.322 34.6875 59.4041 35.1094 59.4041C35.5547 59.4041 35.9385 59.325 36.2607 59.1667C36.583 59.0085 36.8291 58.7742 36.999 58.4636C37.1748 58.1531 37.2627 57.7781 37.2627 57.3386C37.2627 56.8406 37.166 56.4363 36.9727 56.1257C36.7793 55.8152 36.5039 55.5867 36.1465 55.4402C35.7891 55.2878 35.3672 55.2117 34.8809 55.2117H33.6152Z" fill="black"/>
<g clip-path="url(#clip0_7722_1198)">
<path d="M7.30057 44.1163C9.59407 42.6483 10.6042 40.1309 9.55603 38.4924C9.46493 38.3516 9.36255 38.2215 9.24891 38.1022L11.9848 36.3539L27.1592 43.5162C27.7692 43.8472 28.4962 43.9684 29.2273 43.8078C29.8992 43.6609 30.4998 43.2867 30.9277 42.7484L31.0996 42.4779L14.7784 34.5676L17.2547 33.0797C17.2547 33.0797 17.2547 28.9954 17.2547 29.082L11.9848 32.7812L9.24891 31.0329C9.36257 30.9121 9.46534 30.7816 9.55603 30.6427C10.6042 29.0043 9.59548 26.4868 7.30057 25.0188C5.00566 23.5509 2.29798 23.6889 1.24844 25.3274C0.200301 26.9658 1.20899 29.4833 3.5039 30.9512L9.17988 34.5676L3.5039 38.1839C1.2104 39.6519 0.200301 42.1694 1.24844 43.8078C2.29657 45.4462 5.00566 45.5843 7.30057 44.1163ZM4.64219 29.1705C3.60956 28.5098 3.10803 27.6617 2.98124 27.0883C2.94038 26.901 2.91503 26.6418 3.02773 26.4642C3.15311 26.2684 3.48417 26.1388 3.91385 26.1163C4.60979 26.0811 5.4297 26.329 6.15945 26.7967C7.19209 27.4574 7.69362 28.3055 7.82041 28.8789C7.86126 29.0663 7.88662 29.3255 7.77392 29.503C7.64854 29.6988 7.31747 29.8284 6.88779 29.851C6.19045 29.8862 5.37194 29.6382 4.64219 29.1705ZM10.9916 34.5662C10.9916 34.3793 11.0658 34.2002 11.1979 34.0681C11.33 33.936 11.5092 33.8618 11.696 33.8618C11.8828 33.8618 12.0619 33.936 12.194 34.0681C12.3261 34.2002 12.4004 34.3793 12.4004 34.5662C12.4004 34.753 12.3261 34.9321 12.194 35.0642C12.0619 35.1963 11.8828 35.2706 11.696 35.2706C11.5092 35.2706 11.33 35.1963 11.1979 35.0642C11.0658 34.9321 10.9916 34.753 10.9916 34.5662ZM3.91526 43.016C3.48558 42.9935 3.15452 42.8639 3.02914 42.6681C2.91643 42.492 2.94179 42.2313 2.98265 42.044C3.10803 41.4706 3.61097 40.6225 4.6436 39.9618C5.37476 39.4941 6.19326 39.2461 6.8892 39.2814C7.31888 39.3039 7.64995 39.4335 7.77533 39.6293C7.88803 39.8054 7.86267 40.066 7.82182 40.2534C7.69643 40.8268 7.1935 41.6749 6.16086 42.3356C5.4297 42.8033 4.6112 43.0513 3.91526 43.016Z" fill="black"/>
</g>
<line x1="18.6329" y1="35.6566" x2="52.1607" y2="38.6881" stroke="black" stroke-dasharray="2 2"/>
<defs>
<clipPath id="clip0_7722_1198">
<rect width="22" height="31" fill="white" transform="translate(31.7217 24) rotate(90)"/>
</clipPath>
</defs>
</svg>
