<svg width="50" height="70" viewBox="0 0 50 70" fill="none" xmlns="http://www.w3.org/2000/svg">
<path d="M45.8545 64.5918L0.416016 66.6084V3.20605L45.2334 1.10156L45.8545 64.5918Z" fill="#C7CFF6"/>
<path d="M45.8545 64.5918L0.416016 66.6084V3.20605L45.2334 1.10156L45.8545 64.5918Z" stroke="#0F1C5C" stroke-width="0.5"/>
<path d="M45.8545 64.5918L0.416016 66.6084V3.20605L45.2334 1.10156L45.8545 64.5918Z" stroke="#0C164A" stroke-width="0.5"/>
<path d="M42.3223 2.95337L42.9814 66.6057L0.416016 64.3938V2.95337H42.3223Z" fill="#C7CFF6"/>
<path d="M42.3223 2.95337L42.9814 66.6057L0.416016 64.3938V2.95337H42.3223Z" stroke="#0F1C5C" stroke-width="0.5"/>
<path d="M42.3223 2.95337L42.9814 66.6057L0.416016 64.3938V2.95337H42.3223Z" stroke="#0C164A" stroke-width="0.5"/>
<path d="M39.3945 4.18921L39.9863 68.6501L0.416016 66.4128L0.416992 4.18921H39.3945Z" fill="#C7CFF6"/>
<path d="M39.3945 4.18921L39.9863 68.6501L0.416016 66.4128L0.416992 4.18921H39.3945Z" stroke="#0F1C5C" stroke-width="0.5"/>
<path d="M39.3945 4.18921L39.9863 68.6501L0.416016 66.4128L0.416992 4.18921H39.3945Z" stroke="#0C164A" stroke-width="0.5"/>
<path d="M36.6445 5.60254V69.7158L0.416016 66.3779V2.97168L36.6445 5.60254Z" fill="#C7CFF6"/>
<path d="M36.6445 5.60254V69.7158L0.416016 66.3779V2.97168L36.6445 5.60254Z" stroke="#0F1C5C" stroke-width="0.5"/>
<path d="M36.6445 5.60254V69.7158L0.416016 66.3779V2.97168L36.6445 5.60254Z" stroke="#0C164A" stroke-width="0.5"/>
</svg>
