<svg width="66" height="70" viewBox="0 0 66 70" fill="none" xmlns="http://www.w3.org/2000/svg">
<path d="M61.5166 64.6021L16.0781 66.6187V3.21631L60.8955 1.11182L61.5166 64.6021Z" fill="#C7CFF6"/>
<path d="M61.5166 64.6021L16.0781 66.6187V3.21631L60.8955 1.11182L61.5166 64.6021Z" stroke="#0F1C5C" stroke-width="0.5"/>
<path d="M61.5166 64.6021L16.0781 66.6187V3.21631L60.8955 1.11182L61.5166 64.6021Z" stroke="#0C164A" stroke-width="0.5"/>
<path d="M57.9844 2.96362L58.6436 66.616L16.0781 64.4041V2.96362H57.9844Z" fill="#C7CFF6"/>
<path d="M57.9844 2.96362L58.6436 66.616L16.0781 64.4041V2.96362H57.9844Z" stroke="#0F1C5C" stroke-width="0.5"/>
<path d="M57.9844 2.96362L58.6436 66.616L16.0781 64.4041V2.96362H57.9844Z" stroke="#0C164A" stroke-width="0.5"/>
<path d="M55.0566 4.19946L55.6484 68.6604L16.0781 66.4231L16.0791 4.19946H55.0566Z" fill="#C7CFF6"/>
<path d="M55.0566 4.19946L55.6484 68.6604L16.0781 66.4231L16.0791 4.19946H55.0566Z" stroke="#0F1C5C" stroke-width="0.5"/>
<path d="M55.0566 4.19946L55.6484 68.6604L16.0781 66.4231L16.0791 4.19946H55.0566Z" stroke="#0C164A" stroke-width="0.5"/>
<path d="M52.3066 5.61279V69.7261L16.0781 66.3882V2.98193L52.3066 5.61279Z" fill="#C7CFF6"/>
<path d="M52.3066 5.61279V69.7261L16.0781 66.3882V2.98193L52.3066 5.61279Z" stroke="#0F1C5C" stroke-width="0.5"/>
<path d="M52.3066 5.61279V69.7261L16.0781 66.3882V2.98193L52.3066 5.61279Z" stroke="#0C164A" stroke-width="0.5"/>
<path d="M36.6963 15.324V28.1648H34.5781V17.8376L31.4404 18.9011V17.1521L36.4414 15.324H36.6963Z" fill="#0F1C5C"/>
<path d="M36.6963 15.324V28.1648H34.5781V17.8376L31.4404 18.9011V17.1521L36.4414 15.324H36.6963Z" fill="#0C164A"/>
<path d="M32.8936 53.5696H34.1592C34.6514 53.5696 35.0586 53.4846 35.3809 53.3147C35.709 53.1448 35.9521 52.9104 36.1104 52.6116C36.2686 52.3127 36.3477 51.97 36.3477 51.5833C36.3477 51.179 36.2744 50.8333 36.1279 50.5461C35.9873 50.2532 35.7705 50.0276 35.4775 49.8694C35.1904 49.7112 34.8242 49.6321 34.3789 49.6321C34.0039 49.6321 33.6641 49.7083 33.3594 49.8606C33.0605 50.0071 32.8232 50.218 32.6475 50.4934C32.4717 50.7629 32.3838 51.0852 32.3838 51.4602H30.2568C30.2568 50.7805 30.4355 50.177 30.793 49.6497C31.1504 49.1223 31.6367 48.7092 32.252 48.4104C32.873 48.1057 33.5703 47.9534 34.3438 47.9534C35.1699 47.9534 35.8906 48.0911 36.5059 48.3665C37.127 48.636 37.6104 49.0403 37.9561 49.5793C38.3018 50.1184 38.4746 50.7864 38.4746 51.5833C38.4746 51.9465 38.3896 52.3157 38.2197 52.6907C38.0498 53.0657 37.7979 53.4084 37.4639 53.719C37.1299 54.0237 36.7139 54.2727 36.2158 54.4661C35.7178 54.6536 35.1406 54.7473 34.4844 54.7473H32.8936V53.5696ZM32.8936 55.2219V54.0618H34.4844C35.2344 54.0618 35.873 54.1497 36.4004 54.3254C36.9336 54.5012 37.3672 54.7444 37.7012 55.0549C38.0352 55.3596 38.2783 55.7083 38.4307 56.1008C38.5889 56.4934 38.668 56.9094 38.668 57.3489C38.668 57.9465 38.5596 58.4797 38.3428 58.9485C38.1318 59.4114 37.8301 59.804 37.4375 60.1262C37.0449 60.4485 36.585 60.6917 36.0576 60.8557C35.5361 61.0198 34.9678 61.1018 34.3525 61.1018C33.8018 61.1018 33.2744 61.0256 32.7705 60.8733C32.2666 60.7209 31.8154 60.4954 31.417 60.1965C31.0186 59.8918 30.7021 59.5139 30.4678 59.0627C30.2393 58.6057 30.125 58.0784 30.125 57.4807H32.2432C32.2432 57.8616 32.3311 58.1985 32.5068 58.4915C32.6885 58.7786 32.9404 59.0042 33.2627 59.1682C33.5908 59.3323 33.9658 59.4143 34.3877 59.4143C34.833 59.4143 35.2168 59.3352 35.5391 59.177C35.8613 59.0188 36.1074 58.7844 36.2773 58.4739C36.4531 58.1633 36.541 57.7883 36.541 57.3489C36.541 56.8508 36.4443 56.4465 36.251 56.136C36.0576 55.8254 35.7822 55.5969 35.4248 55.4504C35.0674 55.2981 34.6455 55.2219 34.1592 55.2219H32.8936Z" fill="#0F1C5C"/>
<path d="M32.8936 53.5696H34.1592C34.6514 53.5696 35.0586 53.4846 35.3809 53.3147C35.709 53.1448 35.9521 52.9104 36.1104 52.6116C36.2686 52.3127 36.3477 51.97 36.3477 51.5833C36.3477 51.179 36.2744 50.8333 36.1279 50.5461C35.9873 50.2532 35.7705 50.0276 35.4775 49.8694C35.1904 49.7112 34.8242 49.6321 34.3789 49.6321C34.0039 49.6321 33.6641 49.7083 33.3594 49.8606C33.0605 50.0071 32.8232 50.218 32.6475 50.4934C32.4717 50.7629 32.3838 51.0852 32.3838 51.4602H30.2568C30.2568 50.7805 30.4355 50.177 30.793 49.6497C31.1504 49.1223 31.6367 48.7092 32.252 48.4104C32.873 48.1057 33.5703 47.9534 34.3438 47.9534C35.1699 47.9534 35.8906 48.0911 36.5059 48.3665C37.127 48.636 37.6104 49.0403 37.9561 49.5793C38.3018 50.1184 38.4746 50.7864 38.4746 51.5833C38.4746 51.9465 38.3896 52.3157 38.2197 52.6907C38.0498 53.0657 37.7979 53.4084 37.4639 53.719C37.1299 54.0237 36.7139 54.2727 36.2158 54.4661C35.7178 54.6536 35.1406 54.7473 34.4844 54.7473H32.8936V53.5696ZM32.8936 55.2219V54.0618H34.4844C35.2344 54.0618 35.873 54.1497 36.4004 54.3254C36.9336 54.5012 37.3672 54.7444 37.7012 55.0549C38.0352 55.3596 38.2783 55.7083 38.4307 56.1008C38.5889 56.4934 38.668 56.9094 38.668 57.3489C38.668 57.9465 38.5596 58.4797 38.3428 58.9485C38.1318 59.4114 37.8301 59.804 37.4375 60.1262C37.0449 60.4485 36.585 60.6917 36.0576 60.8557C35.5361 61.0198 34.9678 61.1018 34.3525 61.1018C33.8018 61.1018 33.2744 61.0256 32.7705 60.8733C32.2666 60.7209 31.8154 60.4954 31.417 60.1965C31.0186 59.8918 30.7021 59.5139 30.4678 59.0627C30.2393 58.6057 30.125 58.0784 30.125 57.4807H32.2432C32.2432 57.8616 32.3311 58.1985 32.5068 58.4915C32.6885 58.7786 32.9404 59.0042 33.2627 59.1682C33.5908 59.3323 33.9658 59.4143 34.3877 59.4143C34.833 59.4143 35.2168 59.3352 35.5391 59.177C35.8613 59.0188 36.1074 58.7844 36.2773 58.4739C36.4531 58.1633 36.541 57.7883 36.541 57.3489C36.541 56.8508 36.4443 56.4465 36.251 56.136C36.0576 55.8254 35.7822 55.5969 35.4248 55.4504C35.0674 55.2981 34.6455 55.2219 34.1592 55.2219H32.8936Z" fill="#0C164A"/>
<g clip-path="url(#clip0_7722_1198)">
<path d="M6.57889 44.1266C8.87239 42.6586 9.88248 40.1411 8.83435 38.5027C8.74325 38.3618 8.64087 38.2317 8.52723 38.1125L11.2631 36.3642L26.4376 43.5264C27.0476 43.8575 27.7745 43.9786 28.5057 43.818C29.1775 43.6712 29.7781 43.297 30.2061 42.7586L30.3779 42.4881L14.0567 34.5778L16.533 33.0899C16.533 33.0899 16.533 29.0057 16.533 29.0922L11.2631 32.7915L8.52723 31.0432C8.64089 30.9224 8.74366 30.7918 8.83435 30.653C9.88248 29.0145 8.8738 26.497 6.57889 25.0291C4.28398 23.5611 1.5763 23.6992 0.526756 25.3376C-0.521378 26.976 0.487312 29.4935 2.78222 30.9615L8.4582 34.5778L2.78222 38.1942C0.488719 39.6621 -0.521378 42.1796 0.526755 43.818C1.57489 45.4564 4.28398 45.5945 6.57889 44.1266ZM3.92051 29.1808C2.88788 28.5201 2.38635 27.672 2.25956 27.0986C2.2187 26.9112 2.19335 26.652 2.30605 26.4745C2.43143 26.2787 2.76249 26.1491 3.19217 26.1265C3.88811 26.0913 4.70802 26.3393 5.43777 26.807C6.47041 27.4677 6.97194 28.3158 7.09873 28.8892C7.13958 29.0765 7.16494 29.3357 7.05224 29.5132C6.92686 29.7091 6.59579 29.8387 6.16611 29.8612C5.46877 29.8964 4.65026 29.6485 3.92051 29.1808ZM10.2699 34.5764C10.2699 34.3896 10.3441 34.2104 10.4762 34.0783C10.6083 33.9462 10.7875 33.872 10.9743 33.872C11.1611 33.872 11.3403 33.9462 11.4724 34.0783C11.6045 34.2104 11.6787 34.3896 11.6787 34.5764C11.6787 34.7632 11.6045 34.9424 11.4724 35.0745C11.3403 35.2066 11.1611 35.2808 10.9743 35.2808C10.7875 35.2808 10.6083 35.2066 10.4762 35.0745C10.3441 34.9424 10.2699 34.7632 10.2699 34.5764ZM3.19358 43.0263C2.7639 43.0038 2.43284 42.8741 2.30746 42.6783C2.19475 42.5022 2.22011 42.2416 2.26097 42.0542C2.38635 41.4809 2.88929 40.6328 3.92192 39.9721C4.65308 39.5043 5.47159 39.2564 6.16752 39.2916C6.5972 39.3141 6.92827 39.4438 7.05365 39.6396C7.16635 39.8157 7.14099 40.0763 7.10014 40.2637C6.97476 40.837 6.47182 41.6851 5.43918 42.3459C4.70802 42.8136 3.88952 43.0615 3.19358 43.0263Z" fill="#0F1C5C"/>
<path d="M6.57889 44.1266C8.87239 42.6586 9.88248 40.1411 8.83435 38.5027C8.74325 38.3618 8.64087 38.2317 8.52723 38.1125L11.2631 36.3642L26.4376 43.5264C27.0476 43.8575 27.7745 43.9786 28.5057 43.818C29.1775 43.6712 29.7781 43.297 30.2061 42.7586L30.3779 42.4881L14.0567 34.5778L16.533 33.0899C16.533 33.0899 16.533 29.0057 16.533 29.0922L11.2631 32.7915L8.52723 31.0432C8.64089 30.9224 8.74366 30.7918 8.83435 30.653C9.88248 29.0145 8.8738 26.497 6.57889 25.0291C4.28398 23.5611 1.5763 23.6992 0.526756 25.3376C-0.521378 26.976 0.487312 29.4935 2.78222 30.9615L8.4582 34.5778L2.78222 38.1942C0.488719 39.6621 -0.521378 42.1796 0.526755 43.818C1.57489 45.4564 4.28398 45.5945 6.57889 44.1266ZM3.92051 29.1808C2.88788 28.5201 2.38635 27.672 2.25956 27.0986C2.2187 26.9112 2.19335 26.652 2.30605 26.4745C2.43143 26.2787 2.76249 26.1491 3.19217 26.1265C3.88811 26.0913 4.70802 26.3393 5.43777 26.807C6.47041 27.4677 6.97194 28.3158 7.09873 28.8892C7.13958 29.0765 7.16494 29.3357 7.05224 29.5132C6.92686 29.7091 6.59579 29.8387 6.16611 29.8612C5.46877 29.8964 4.65026 29.6485 3.92051 29.1808ZM10.2699 34.5764C10.2699 34.3896 10.3441 34.2104 10.4762 34.0783C10.6083 33.9462 10.7875 33.872 10.9743 33.872C11.1611 33.872 11.3403 33.9462 11.4724 34.0783C11.6045 34.2104 11.6787 34.3896 11.6787 34.5764C11.6787 34.7632 11.6045 34.9424 11.4724 35.0745C11.3403 35.2066 11.1611 35.2808 10.9743 35.2808C10.7875 35.2808 10.6083 35.2066 10.4762 35.0745C10.3441 34.9424 10.2699 34.7632 10.2699 34.5764ZM3.19358 43.0263C2.7639 43.0038 2.43284 42.8741 2.30746 42.6783C2.19475 42.5022 2.22011 42.2416 2.26097 42.0542C2.38635 41.4809 2.88929 40.6328 3.92192 39.9721C4.65308 39.5043 5.47159 39.2564 6.16752 39.2916C6.5972 39.3141 6.92827 39.4438 7.05365 39.6396C7.16635 39.8157 7.14099 40.0763 7.10014 40.2637C6.97476 40.837 6.47182 41.6851 5.43918 42.3459C4.70802 42.8136 3.88952 43.0615 3.19358 43.0263Z" fill="#0C164A"/>
</g>
<line x1="17.9112" y1="35.6668" x2="51.4391" y2="38.6983" stroke="#0F1C5C" stroke-dasharray="2 2"/>
<line x1="17.9112" y1="35.6668" x2="51.4391" y2="38.6983" stroke="#0C164A" stroke-dasharray="2 2"/>
<defs>
<clipPath id="clip0_7722_1198">
<rect width="22" height="31" fill="white" transform="translate(31 24.0103) rotate(90)"/>
</clipPath>
</defs>
</svg>
