<svg width="66" height="70" viewBox="0 0 66 70" fill="none" xmlns="http://www.w3.org/2000/svg">
<path d="M61.5166 64.5918L16.0781 66.6084V3.20605L60.8955 1.10156L61.5166 64.5918Z" fill="#C7CFF6"/>
<path d="M61.5166 64.5918L16.0781 66.6084V3.20605L60.8955 1.10156L61.5166 64.5918Z" stroke="#0F1C5C" stroke-width="0.5"/>
<path d="M61.5166 64.5918L16.0781 66.6084V3.20605L60.8955 1.10156L61.5166 64.5918Z" stroke="#0C164A" stroke-width="0.5"/>
<path d="M57.9844 2.95337L58.6436 66.6057L16.0781 64.3938V2.95337H57.9844Z" fill="#C7CFF6"/>
<path d="M57.9844 2.95337L58.6436 66.6057L16.0781 64.3938V2.95337H57.9844Z" stroke="#0F1C5C" stroke-width="0.5"/>
<path d="M57.9844 2.95337L58.6436 66.6057L16.0781 64.3938V2.95337H57.9844Z" stroke="#0C164A" stroke-width="0.5"/>
<path d="M55.0566 4.18921L55.6484 68.6501L16.0781 66.4128L16.0791 4.18921H55.0566Z" fill="#C7CFF6"/>
<path d="M55.0566 4.18921L55.6484 68.6501L16.0781 66.4128L16.0791 4.18921H55.0566Z" stroke="#0F1C5C" stroke-width="0.5"/>
<path d="M55.0566 4.18921L55.6484 68.6501L16.0781 66.4128L16.0791 4.18921H55.0566Z" stroke="#0C164A" stroke-width="0.5"/>
<path d="M52.3066 5.60254V69.7158L16.0781 66.3779V2.97168L52.3066 5.60254Z" fill="#C7CFF6"/>
<path d="M52.3066 5.60254V69.7158L16.0781 66.3779V2.97168L52.3066 5.60254Z" stroke="#0F1C5C" stroke-width="0.5"/>
<path d="M52.3066 5.60254V69.7158L16.0781 66.3779V2.97168L52.3066 5.60254Z" stroke="#0C164A" stroke-width="0.5"/>
<path d="M45.5127 11.5251V22.9392H43.6299V13.7595L40.8408 14.7048V13.1501L45.2861 11.5251H45.5127Z" fill="#0F1C5C"/>
<path d="M45.5127 11.5251V22.9392H43.6299V13.7595L40.8408 14.7048V13.1501L45.2861 11.5251H45.5127Z" fill="#0C164A"/>
<path d="M45.5127 32.5929V44.007H43.6299V34.8273L40.8408 35.7726V34.2179L45.2861 32.5929H45.5127Z" fill="#0F1C5C"/>
<path d="M45.5127 32.5929V44.007H43.6299V34.8273L40.8408 35.7726V34.2179L45.2861 32.5929H45.5127Z" fill="#0C164A"/>
<path d="M45.5127 53.8438V65.2578H43.6299V56.0781L40.8408 57.0234V55.4688L45.2861 53.8438H45.5127Z" fill="#0F1C5C"/>
<path d="M45.5127 53.8438V65.2578H43.6299V56.0781L40.8408 57.0234V55.4688L45.2861 53.8438H45.5127Z" fill="#0C164A"/>
<g clip-path="url(#clip0_7737_1262)">
<path d="M6.57889 36.1162C8.87239 34.6482 9.88248 32.1307 8.83435 30.4923C8.74325 30.3514 8.64087 30.2214 8.52723 30.1021L11.2631 28.3538L26.4376 35.516C27.0476 35.8471 27.7745 35.9683 28.5057 35.8077C29.1775 35.6608 29.7781 35.2866 30.2061 34.7482L30.3779 34.4778L14.0567 26.5674L16.533 25.0795C16.533 25.0795 16.533 20.9953 16.533 21.0818L11.2631 24.7811L8.52723 23.0328C8.64089 22.912 8.74366 22.7814 8.83435 22.6426C9.88248 21.0042 8.8738 18.4867 6.57889 17.0187C4.28398 15.5508 1.5763 15.6888 0.526756 17.3272C-0.521378 18.9657 0.487311 21.4831 2.78222 22.9511L8.4582 26.5674L2.78222 30.1838C0.488719 31.6517 -0.521379 34.1692 0.526755 35.8077C1.57489 37.4461 4.28398 37.5841 6.57889 36.1162ZM3.92051 21.1704C2.88788 20.5097 2.38635 19.6616 2.25956 19.0882C2.2187 18.9008 2.19335 18.6416 2.30605 18.4641C2.43143 18.2683 2.76249 18.1387 3.19217 18.1162C3.88811 18.0809 4.70802 18.3289 5.43777 18.7966C6.47041 19.4573 6.97194 20.3054 7.09873 20.8788C7.13958 21.0661 7.16494 21.3254 7.05224 21.5029C6.92686 21.6987 6.59579 21.8283 6.16611 21.8508C5.46877 21.8861 4.65026 21.6381 3.92051 21.1704ZM10.2699 26.566C10.2699 26.3792 10.3441 26.2001 10.4762 26.068C10.6083 25.9359 10.7875 25.8616 10.9743 25.8616C11.1611 25.8616 11.3403 25.9359 11.4724 26.068C11.6045 26.2001 11.6787 26.3792 11.6787 26.566C11.6787 26.7529 11.6045 26.932 11.4724 27.0641C11.3403 27.1962 11.1611 27.2704 10.9743 27.2704C10.7875 27.2704 10.6083 27.1962 10.4762 27.0641C10.3441 26.932 10.2699 26.7529 10.2699 26.566ZM3.19358 35.0159C2.7639 34.9934 2.43284 34.8638 2.30746 34.6679C2.19475 34.4919 2.22011 34.2312 2.26097 34.0439C2.38635 33.4705 2.88929 32.6224 3.92192 31.9617C4.65308 31.494 5.47158 31.246 6.16752 31.2812C6.5972 31.3038 6.92827 31.4334 7.05365 31.6292C7.16635 31.8053 7.14099 32.0659 7.10014 32.2533C6.97476 32.8267 6.47182 33.6748 5.43918 34.3355C4.70802 34.8032 3.88952 35.0511 3.19358 35.0159Z" fill="#0F1C5C"/>
<path d="M6.57889 36.1162C8.87239 34.6482 9.88248 32.1307 8.83435 30.4923C8.74325 30.3514 8.64087 30.2214 8.52723 30.1021L11.2631 28.3538L26.4376 35.516C27.0476 35.8471 27.7745 35.9683 28.5057 35.8077C29.1775 35.6608 29.7781 35.2866 30.2061 34.7482L30.3779 34.4778L14.0567 26.5674L16.533 25.0795C16.533 25.0795 16.533 20.9953 16.533 21.0818L11.2631 24.7811L8.52723 23.0328C8.64089 22.912 8.74366 22.7814 8.83435 22.6426C9.88248 21.0042 8.8738 18.4867 6.57889 17.0187C4.28398 15.5508 1.5763 15.6888 0.526756 17.3272C-0.521378 18.9657 0.487311 21.4831 2.78222 22.9511L8.4582 26.5674L2.78222 30.1838C0.488719 31.6517 -0.521379 34.1692 0.526755 35.8077C1.57489 37.4461 4.28398 37.5841 6.57889 36.1162ZM3.92051 21.1704C2.88788 20.5097 2.38635 19.6616 2.25956 19.0882C2.2187 18.9008 2.19335 18.6416 2.30605 18.4641C2.43143 18.2683 2.76249 18.1387 3.19217 18.1162C3.88811 18.0809 4.70802 18.3289 5.43777 18.7966C6.47041 19.4573 6.97194 20.3054 7.09873 20.8788C7.13958 21.0661 7.16494 21.3254 7.05224 21.5029C6.92686 21.6987 6.59579 21.8283 6.16611 21.8508C5.46877 21.8861 4.65026 21.6381 3.92051 21.1704ZM10.2699 26.566C10.2699 26.3792 10.3441 26.2001 10.4762 26.068C10.6083 25.9359 10.7875 25.8616 10.9743 25.8616C11.1611 25.8616 11.3403 25.9359 11.4724 26.068C11.6045 26.2001 11.6787 26.3792 11.6787 26.566C11.6787 26.7529 11.6045 26.932 11.4724 27.0641C11.3403 27.1962 11.1611 27.2704 10.9743 27.2704C10.7875 27.2704 10.6083 27.1962 10.4762 27.0641C10.3441 26.932 10.2699 26.7529 10.2699 26.566ZM3.19358 35.0159C2.7639 34.9934 2.43284 34.8638 2.30746 34.6679C2.19475 34.4919 2.22011 34.2312 2.26097 34.0439C2.38635 33.4705 2.88929 32.6224 3.92192 31.9617C4.65308 31.494 5.47158 31.246 6.16752 31.2812C6.5972 31.3038 6.92827 31.4334 7.05365 31.6292C7.16635 31.8053 7.14099 32.0659 7.10014 32.2533C6.97476 32.8267 6.47182 33.6748 5.43918 34.3355C4.70802 34.8032 3.88952 35.0511 3.19358 35.0159Z" fill="#0C164A"/>
</g>
<line x1="17.9112" y1="26.6566" x2="51.4391" y2="29.6881" stroke="#0F1C5C" stroke-dasharray="2 2"/>
<line x1="17.9112" y1="26.6566" x2="51.4391" y2="29.6881" stroke="#0C164A" stroke-dasharray="2 2"/>
<line x1="34.6924" y1="4.59497" x2="34.6924" y2="67.9158" stroke="#0F1C5C" stroke-dasharray="2 2"/>
<line x1="34.6924" y1="4.59497" x2="34.6924" y2="67.9158" stroke="#0C164A" stroke-dasharray="2 2"/>
<line x1="17.9112" y1="46.6566" x2="51.4391" y2="49.6881" stroke="#0F1C5C" stroke-dasharray="2 2"/>
<line x1="17.9112" y1="46.6566" x2="51.4391" y2="49.6881" stroke="#0C164A" stroke-dasharray="2 2"/>
<defs>
<clipPath id="clip0_7737_1262">
<rect width="22" height="31" fill="white" transform="translate(31 16) rotate(90)"/>
</clipPath>
</defs>
</svg>
