<?xml version="1.0" encoding="ISO-8859-1" standalone="yes"?>
<svg width="249.066" height="366.835">
  <defs> 
    <marker id="ArrowEnd" viewBox="0 0 10 10" refX="0" refY="5" 
     markerUnits="strokeWidth" 
     markerWidth="4" 
     markerHeight="3" 
     orient="auto"> 
        <path d="M 0 0 L 10 5 L 0 10 z" /> 
    </marker>
    <marker id="ArrowStart" viewBox="0 0 10 10" refX="10" refY="5" 
     markerUnits="strokeWidth" 
     markerWidth="4" 
     markerHeight="3" 
     orient="auto"> 
        <path d="M 10 0 L 0 5 L 10 10 z" /> 
    </marker> </defs>
<g>
<g>
<defs><radialGradient id="1" cx="166.609" cy="224.79" r="279.801" fx="166.609" fy="224.79" gradientUnits="userSpaceOnUse">
<stop offset="0" style="stop-color:#58b8ff"/>
<stop offset="0.41" style="stop-color:#0500c6"/>
<stop offset="1" style="stop-color:#0500c6"/>
</radialGradient>
</defs><path style="stroke:none; fill-rule:evenodd; fill:url(#1)" d="M 110.086 364.989C 191.561 383.22 355.114 266.748 149.394 0C 133.152 66.2203 37.5251 124.42 12.9178 182.937C -20.245 261.801 9.84978 342.56 110.086 364.989z"/>
<path style="stroke:none; fill-rule:evenodd; fill:#0000cd" d="M 35.3506 308.305C 88.0621 339.767 5.47427 209.157 127.209 84.7279C 85.3728 104.773 53.9433 141.386 36.9441 167.604C 11.2941 207.164 -19.6494 275.477 35.3506 308.305z"/>
<path style="stroke:none; fill-rule:evenodd; fill:#0808ce" d="M 35.0813 306.256C 86.1169 336.802 6.26704 209.739 124.339 88.0923C 83.8415 107.596 53.2807 143.403 36.7833 168.84C 11.8906 207.221 -18.185 274.36 35.0813 306.256z"/>
<path style="stroke:none; fill-rule:evenodd; fill:#1111d0" d="M 34.8121 304.208C 84.1717 333.836 7.05975 210.32 121.469 91.4568C 82.3103 110.419 52.6181 145.421 36.6226 170.076C 12.4871 207.277 -16.7207 273.243 34.8121 304.208z"/>
<path style="stroke:none; fill-rule:evenodd; fill:#1919d2" d="M 34.5428 302.159C 82.2265 330.871 7.85252 210.901 118.599 94.8213C 80.779 113.242 51.9556 147.439 36.4619 171.311C 13.0835 207.333 -15.2563 272.127 34.5428 302.159z"/>
<path style="stroke:none; fill-rule:evenodd; fill:#2222d3" d="M 34.2736 300.111C 80.2812 327.906 8.64531 211.483 115.729 98.1857C 79.2477 116.065 51.2931 149.456 36.3011 172.547C 13.68 207.39 -13.7919 271.011 34.2736 300.111z"/>
<path style="stroke:none; fill-rule:evenodd; fill:#2a2ad5" d="M 34.0043 298.063C 78.336 324.941 9.43803 212.064 112.859 101.55C 77.7165 118.888 50.6305 151.474 36.1404 173.783C 14.2765 207.446 -12.3276 269.894 34.0043 298.063z"/>
<path style="stroke:none; fill-rule:evenodd; fill:#3333d7" d="M 33.7351 296.014C 76.3907 321.976 10.2308 212.646 109.989 104.915C 76.1852 121.711 49.9679 153.491 35.9797 175.019C 14.8729 207.502 -10.8632 268.778 33.7351 296.014z"/>
<path style="stroke:none; fill-rule:evenodd; fill:#3b3bd8" d="M 33.4659 293.966C 74.4454 319.011 11.0236 213.227 107.119 108.279C 74.6539 124.534 49.3054 155.509 35.819 176.255C 15.4694 207.558 -9.39886 267.661 33.4659 293.966z"/>
<path style="stroke:none; fill-rule:evenodd; fill:#4444da" d="M 33.1966 291.917C 72.5002 316.046 11.8163 213.809 104.249 111.643C 73.1227 127.357 48.6429 157.527 35.6582 177.491C 16.0659 207.615 -7.93452 266.544 33.1966 291.917z"/>
<path style="stroke:none; fill-rule:evenodd; fill:#4c4cdc" d="M 32.9274 289.869C 70.555 313.081 12.6091 214.39 101.379 115.008C 71.5914 130.18 47.9803 159.544 35.4975 178.727C 16.6623 207.671 -6.47012 265.428 32.9274 289.869z"/>
<path style="stroke:none; fill-rule:evenodd; fill:#5555dd" d="M 32.6581 287.821C 68.6097 310.115 13.4018 214.971 98.5084 118.372C 70.0601 133.003 47.3177 161.562 35.3368 179.963C 17.2588 207.727 -5.00577 264.311 32.6581 287.821z"/>
<path style="stroke:none; fill-rule:evenodd; fill:#5d5ddf" d="M 32.3889 285.772C 66.6646 307.15 14.1945 215.553 95.6384 121.737C 68.5289 135.826 46.6552 163.579 35.176 181.198C 17.8553 207.784 -3.5414 263.195 32.3889 285.772z"/>
<path style="stroke:none; fill-rule:evenodd; fill:#6666e1" d="M 32.1196 283.724C 64.7193 304.185 14.9873 216.135 92.7683 125.101C 66.9976 138.649 45.9926 165.597 35.0154 182.434C 18.4517 207.84 -2.07707 262.078 32.1196 283.724z"/>
<path style="stroke:none; fill-rule:evenodd; fill:#6e6ee2" d="M 31.8504 281.676C 62.774 301.22 15.78 216.716 89.8982 128.466C 65.4663 141.472 45.3301 167.615 34.8546 183.67C 19.0482 207.896 -0.612671 260.962 31.8504 281.676z"/>
<path style="stroke:none; fill-rule:evenodd; fill:#7777e4" d="M 31.5811 279.627C 60.8288 298.255 16.5728 217.297 87.0282 131.83C 63.9351 144.295 44.6676 169.632 34.6939 184.906C 19.6447 207.953 0.851715 259.846 31.5811 279.627z"/>
<path style="stroke:none; fill-rule:evenodd; fill:#7f7fe6" d="M 31.3119 277.579C 58.8836 295.29 17.3656 217.879 84.1581 135.194C 62.4038 147.118 44.005 171.65 34.5331 186.142C 20.2412 208.009 2.31607 258.729 31.3119 277.579z"/>
<path style="stroke:none; fill-rule:evenodd; fill:#8888e7" d="M 31.0426 275.531C 56.9383 292.325 18.1583 218.46 81.2881 138.559C 60.8725 149.941 43.3424 173.667 34.3724 187.378C 20.8376 208.065 3.78044 257.613 31.0426 275.531z"/>
<path style="stroke:none; fill-rule:evenodd; fill:#9090e9" d="M 30.7734 273.482C 54.9931 289.36 18.9511 219.042 78.418 141.923C 59.3412 152.764 42.6799 175.685 34.2117 188.614C 21.4341 208.122 5.24481 256.496 30.7734 273.482z"/>
<path style="stroke:none; fill-rule:evenodd; fill:#9999eb" d="M 30.5042 271.434C 53.0479 286.395 19.7438 219.623 75.5479 145.288C 57.81 155.587 42.0173 177.702 34.0509 189.849C 22.0306 208.178 6.70917 255.38 30.5042 271.434z"/>
<path style="stroke:none; fill-rule:evenodd; fill:#a1a1ec" d="M 30.2349 269.385C 51.1026 283.43 20.5366 220.205 72.6779 148.652C 56.2787 158.41 41.3548 179.72 33.8902 191.085C 22.6271 208.234 8.17351 254.263 30.2349 269.385z"/>
<path style="stroke:none; fill-rule:evenodd; fill:#aaaaee" d="M 29.9657 267.337C 49.1573 280.464 21.3293 220.786 69.8078 152.017C 54.7474 161.233 40.6922 181.738 33.7295 192.321C 23.2235 208.291 9.63786 253.147 29.9657 267.337z"/>
<path style="stroke:none; fill-rule:evenodd; fill:#b2b2f0" d="M 29.6964 265.289C 47.2121 277.499 22.1221 221.368 66.9377 155.381C 53.2162 164.056 40.0296 183.755 33.5688 193.557C 23.82 208.347 11.1023 252.03 29.6964 265.289z"/>
<path style="stroke:none; fill-rule:evenodd; fill:#bbbbf1" d="M 29.4272 263.24C 45.2669 274.534 22.9148 221.949 64.0677 158.746C 51.6849 166.879 39.3671 185.773 33.408 194.793C 24.4164 208.403 12.5666 250.914 29.4272 263.24z"/>
<path style="stroke:none; fill-rule:evenodd; fill:#c3c3f3" d="M 29.158 261.192C 43.3216 271.569 23.7076 222.531 61.1976 162.11C 50.1537 169.702 38.7046 187.79 33.2473 196.029C 25.0129 208.46 14.031 249.797 29.158 261.192z"/>
<path style="stroke:none; fill-rule:evenodd; fill:#ccccf5" d="M 28.8887 259.143C 41.3764 268.604 24.5003 223.112 58.3276 165.474C 48.6224 172.525 38.042 189.808 33.0866 197.265C 25.6094 208.516 15.4954 248.681 28.8887 259.143z"/>
<path style="stroke:none; fill-rule:evenodd; fill:#d4d4f6" d="M 28.6194 257.095C 39.4312 265.639 25.2931 223.693 55.4575 168.839C 47.0911 175.348 37.3795 191.825 32.9258 198.5C 26.2059 208.572 16.9597 247.564 28.6194 257.095z"/>
<path style="stroke:none; fill-rule:evenodd; fill:#ddddf8" d="M 28.3502 255.047C 37.4859 262.674 26.0859 224.275 52.5874 172.203C 45.5598 178.171 36.7169 193.843 32.7651 199.736C 26.8024 208.629 18.424 246.448 28.3502 255.047z"/>
<path style="stroke:none; fill-rule:evenodd; fill:#e5e5fa" d="M 28.081 252.998C 35.5407 259.709 26.8786 224.856 49.7173 175.568C 44.0286 180.994 36.0544 195.861 32.6044 200.972C 27.3988 208.685 19.8884 245.331 28.081 252.998z"/>
<path style="stroke:none; fill-rule:evenodd; fill:#eeeefb" d="M 27.8117 250.95C 33.5954 256.743 27.6714 225.438 46.8473 178.932C 42.4973 183.817 35.3918 197.878 32.4437 202.208C 27.9953 208.741 21.3528 244.215 27.8117 250.95z"/>
<path style="stroke:none; fill-rule:evenodd; fill:#f6f6fd" d="M 27.5425 248.902C 31.6502 253.778 28.4641 226.019 43.9772 182.297C 40.966 186.64 34.7293 199.896 32.283 203.444C 28.5918 208.798 22.8172 243.098 27.5425 248.902z"/>
<path style="stroke:none; fill-rule:evenodd; fill:#ffffff" d="M 27.2732 246.853C 29.705 250.813 29.2569 226.601 41.1072 185.661C 39.4348 189.463 34.0667 201.913 32.1222 204.68C 29.1882 208.854 24.2815 241.982 27.2732 246.853z"/>
</g>
</g>
</svg>